<svg width="512" height="512" viewBox="0 0 512 512" fill="none" xmlns="http://www.w3.org/2000/svg">
<g clip-path="url(#clip0_3845_7510)">
<circle cx="256" cy="557" r="200" fill="#FFE785"/>
<path d="M409.92 194.187C423.094 194.187 433.813 183.467 433.813 170.294C433.813 157.12 423.094 146.4 409.92 146.4C396.746 146.4 386.027 157.12 386.027 170.294C386.027 183.467 396.746 194.187 409.92 194.187ZM409.92 160.054C415.567 160.054 420.16 164.646 420.16 170.294C420.16 175.941 415.567 180.534 409.92 180.534C404.273 180.534 399.68 175.941 399.68 170.294C399.68 164.646 404.273 160.054 409.92 160.054ZM407.066 103.167C409.002 103.167 410.859 102.398 412.227 101.029C413.596 99.6605 414.365 97.8041 414.365 95.8684C414.365 93.9327 413.596 92.0763 412.227 90.7075C410.859 89.3388 409.002 88.5698 407.066 88.5698C405.131 88.5698 403.274 89.3388 401.906 90.7075C400.537 92.0763 399.768 93.9327 399.768 95.8684C399.768 97.8041 400.537 99.6605 401.906 101.029C403.274 102.398 405.131 103.167 407.066 103.167ZM416.747 276.107C413.069 276.107 409.623 277.011 406.507 278.503V267.563C406.507 249.689 391.853 235.147 373.839 235.147H349.456V235.196C348.055 234.212 346.588 233.323 345.067 232.537V187.36C345.067 168.541 329.753 153.227 310.933 153.227C292.114 153.227 276.8 168.541 276.8 187.36V204.301C276.8 213.824 280.381 222.507 286.229 229.148C281.266 230.206 276.569 232.26 272.422 235.186C272.354 235.184 272.298 235.147 272.23 235.147H136.213C119.626 235.147 106.133 248.64 106.133 265.227V278.503C103.017 277.011 99.5712 276.107 95.8933 276.107C82.7196 276.107 72 286.826 72 300V368.267C72 381.441 82.7196 392.16 95.8933 392.16C98.2571 392.16 100.495 391.71 102.652 391.068C102.759 391.135 102.853 391.22 102.966 391.28L88.8107 419.585C88.2907 420.626 88.0453 421.782 88.0978 422.944C88.1504 424.107 88.499 425.236 89.1108 426.226C89.7225 427.216 90.577 428.033 91.5932 428.6C92.6094 429.166 93.7536 429.464 94.9171 429.465H113.938C115.078 429.465 116.2 429.179 117.201 428.634C118.203 428.089 119.052 427.302 119.671 426.345L141.77 392.16H324.587V442.558C320.392 447.361 317.76 453.564 317.76 460.427C317.76 462.237 318.479 463.974 319.759 465.254C321.04 466.534 322.776 467.254 324.587 467.254H365.547C367.357 467.254 369.094 466.534 370.374 465.254C371.654 463.974 372.373 462.237 372.373 460.427C372.373 453.564 369.742 447.361 365.547 442.558V392.16H371.36L393.459 426.343C394.078 427.301 394.927 428.088 395.928 428.633C396.93 429.178 398.052 429.463 399.192 429.463H418.209C419.373 429.462 420.517 429.165 421.533 428.598C422.549 428.031 423.404 427.214 424.016 426.224C424.627 425.235 424.976 424.105 425.029 422.943C425.081 421.78 424.836 420.624 424.316 419.583L410.604 392.16H416.747C429.92 392.16 440.64 381.441 440.64 368.267V300C440.64 286.826 429.92 276.107 416.747 276.107ZM392.853 267.563V351.2H372.373V323.894C372.373 322.083 371.654 320.347 370.374 319.066C369.094 317.786 367.357 317.067 365.547 317.067V266.056C365.547 259.836 364.007 253.978 361.33 248.8H373.839C384.323 248.8 392.853 257.218 392.853 267.563ZM351.893 434.09C349.699 433.52 347.437 433.12 345.067 433.12C342.696 433.12 340.435 433.52 338.24 434.09V364.854H347.364C347.453 364.854 347.528 364.806 347.616 364.802C348.939 365.965 350.364 366.989 351.895 367.881V434.09H351.893ZM242.667 344.374C242.667 340.61 245.73 337.547 249.493 337.547H339.209C338.639 339.742 338.24 342.003 338.24 344.374C338.24 346.744 338.639 349.005 339.209 351.2H249.493C245.73 351.2 242.667 348.137 242.667 344.374ZM294.056 241.974H327.809C341.088 241.974 351.892 252.777 351.892 266.056V320.866C350.393 321.738 348.982 322.752 347.676 323.894H269.973V266.056C269.973 252.777 280.777 241.974 294.056 241.974ZM358.72 332.553V356.194C354.643 353.83 351.893 349.417 351.893 344.374C351.893 339.33 354.643 334.917 358.72 332.553ZM290.453 187.36C290.453 176.067 299.64 166.88 310.933 166.88C322.226 166.88 331.413 176.067 331.413 187.36V228.32H314.475C301.231 228.32 290.455 217.544 290.455 204.301V187.36H290.453ZM119.787 265.227C119.787 256.17 127.156 248.8 136.213 248.8H260.537C257.768 254.131 256.322 260.049 256.32 266.056V323.894H249.493C238.2 323.894 229.013 333.081 229.013 344.374C229.013 346.778 229.507 349.055 230.271 351.2H119.787V300V265.227ZM85.6533 368.267V300C85.6533 294.353 90.246 289.76 95.8933 289.76C101.541 289.76 106.133 294.353 106.133 300V368.267C106.133 373.914 101.541 378.507 95.8933 378.507C90.246 378.507 85.6533 373.914 85.6533 368.267ZM110.221 415.809H105.963L117.792 392.16H125.511L110.221 415.809ZM117.391 378.507C118.882 375.391 119.787 371.945 119.787 368.267V364.854H324.587V378.507H117.391ZM333.246 453.6C335.61 449.523 340.023 446.774 345.067 446.774C350.11 446.774 354.523 449.523 356.887 453.6H333.246ZM365.547 371.68C367.357 371.68 369.094 370.961 370.374 369.681C371.654 368.4 372.373 366.664 372.373 364.854H392.853V368.267C392.853 371.945 393.758 375.391 395.25 378.507H365.547V371.68ZM407.164 415.809H402.911L387.621 392.16H395.338L407.164 415.809ZM426.987 368.267C426.987 373.914 422.394 378.507 416.747 378.507C411.099 378.507 406.507 373.914 406.507 368.267V300C406.507 294.353 411.099 289.76 416.747 289.76C422.394 289.76 426.987 294.353 426.987 300V368.267Z" fill="#494949"/>
<path d="M338.24 317.067C340.051 317.067 341.787 316.347 343.068 315.067C344.348 313.787 345.067 312.051 345.067 310.24V276.107C345.067 274.296 344.348 272.56 343.068 271.279C341.787 269.999 340.051 269.28 338.24 269.28C336.43 269.28 334.694 269.999 333.413 271.279C332.133 272.56 331.414 274.296 331.414 276.107V310.24C331.414 312.051 332.133 313.787 333.413 315.067C334.694 316.347 336.43 317.067 338.24 317.067ZM283.627 317.067C285.438 317.067 287.174 316.347 288.454 315.067C289.735 313.787 290.454 312.051 290.454 310.24V276.107C290.454 274.296 289.735 272.56 288.454 271.279C287.174 269.999 285.438 269.28 283.627 269.28C281.817 269.28 280.08 269.999 278.8 271.279C277.52 272.56 276.8 274.296 276.8 276.107V310.24C276.8 312.051 277.52 313.787 278.8 315.067C280.08 316.347 281.817 317.067 283.627 317.067ZM160.747 207.84C198.391 207.84 229.014 177.217 229.014 139.573C229.014 101.929 198.391 71.3066 160.747 71.3066C123.103 71.3066 92.4805 101.929 92.4805 139.573C92.4805 177.217 123.103 207.84 160.747 207.84ZM160.747 84.96C190.861 84.96 215.36 109.459 215.36 139.573C215.36 169.687 190.861 194.187 160.747 194.187C130.633 194.187 106.134 169.687 106.134 139.573C106.134 109.459 130.633 84.96 160.747 84.96Z" fill="#494949"/>
<path d="M140.274 160.053C141.41 160.053 142.561 159.77 143.621 159.173L164.101 147.619C165.155 147.025 166.032 146.161 166.643 145.116C167.253 144.071 167.574 142.883 167.574 141.673V112.267C167.574 110.456 166.854 108.72 165.574 107.439C164.294 106.159 162.558 105.44 160.747 105.44C158.936 105.44 157.2 106.159 155.92 107.439C154.64 108.72 153.92 110.456 153.92 112.267V137.687L136.913 147.281C135.337 148.17 134.178 149.65 133.692 151.394C133.205 153.137 133.431 155.003 134.319 156.58C134.915 157.635 135.78 158.513 136.826 159.123C137.873 159.733 139.062 160.054 140.274 160.053ZM317.76 84.96H331.414C333.224 84.96 334.961 84.2408 336.241 82.9605C337.521 81.6803 338.24 79.9439 338.24 78.1333C338.24 76.3228 337.521 74.5864 336.241 73.3062C334.961 72.0259 333.224 71.3067 331.414 71.3067H317.76C315.95 71.3067 314.213 72.0259 312.933 73.3062C311.653 74.5864 310.934 76.3228 310.934 78.1333C310.934 79.9439 311.653 81.6803 312.933 82.9605C314.213 84.2408 315.95 84.96 317.76 84.96ZM304.107 71.3067C305.918 71.3067 307.654 70.5874 308.934 69.3072C310.214 68.0269 310.934 66.2905 310.934 64.48V50.8267C310.934 49.0161 310.214 47.2797 308.934 45.9995C307.654 44.7192 305.918 44 304.107 44C302.296 44 300.56 44.7192 299.28 45.9995C298 47.2797 297.28 49.0161 297.28 50.8267V64.48C297.28 66.2905 298 68.0269 299.28 69.3072C300.56 70.5874 302.296 71.3067 304.107 71.3067ZM304.107 84.96C302.296 84.96 300.56 85.6792 299.28 86.9595C298 88.2397 297.28 89.9761 297.28 91.7867V105.44C297.28 107.251 298 108.987 299.28 110.267C300.56 111.547 302.296 112.267 304.107 112.267C305.918 112.267 307.654 111.547 308.934 110.267C310.214 108.987 310.934 107.251 310.934 105.44V91.7867C310.934 89.9761 310.214 88.2397 308.934 86.9595C307.654 85.6792 305.918 84.96 304.107 84.96ZM276.8 84.96H290.454C292.264 84.96 294.001 84.2408 295.281 82.9605C296.561 81.6803 297.28 79.9439 297.28 78.1333C297.28 76.3228 296.561 74.5864 295.281 73.3062C294.001 72.0259 292.264 71.3067 290.454 71.3067H276.8C274.99 71.3067 273.253 72.0259 271.973 73.3062C270.693 74.5864 269.974 76.3228 269.974 78.1333C269.974 79.9439 270.693 81.6803 271.973 82.9605C273.253 84.2408 274.99 84.96 276.8 84.96Z" fill="#494949"/>
</g>
<defs>
<clipPath id="clip0_3845_7510">
<rect width="512" height="512" fill="white"/>
</clipPath>
</defs>
</svg>
